<?xml version="1.0" encoding="utf-8"?>
<!-- Generator: Adobe Illustrator 20.0.0, SVG Export Plug-In . SVG Version: 6.00 Build 0)  -->
<svg version="1.1" id="Layer_1" xmlns="http://www.w3.org/2000/svg" xmlns:xlink="http://www.w3.org/1999/xlink" x="0px" y="0px"
	 width="284.2px" height="67.8px" viewBox="0 0 284.2 67.8" style="enable-background:new 0 0 284.2 67.8;" xml:space="preserve">
<style type="text/css">
	.st0{fill:#FFFFFF;}
</style>
<g>
	<path class="st0" d="M38.2,28.8c0-2.2-1.2-3.3-3.6-3.3h-5v6.9h5.2C37.1,32.4,38.2,31.2,38.2,28.8z"/>
	<path class="st0" d="M37.7,36.5c-0.8-0.5-1.7-0.8-2.8-0.8h-5.2v7.1H35c1.3,0,2.3-0.3,2.9-0.8c0.6-0.5,1-1.5,1-2.8
		C38.8,37.9,38.4,37,37.7,36.5z"/>
	<path class="st0" d="M12.8,0.1L12.8,0.1L0,12.9v42.7v3.5v8.8h8.8H12h177.9V11.8L201.7,0H12.8V0.1z M35.1,46.2h-9.4V22.1h9.1
		c2.5,0,4.3,0.5,5.5,1.5s1.8,2.6,1.8,4.8c0,1.4-0.2,2.6-0.7,3.4s-1.2,1.5-2.2,2c2.3,0.9,3.4,2.8,3.4,5.6
		C42.8,44,40.3,46.2,35.1,46.2z M61.2,46.2h-3.8v-1.1c-1.7,1-3.3,1.5-4.7,1.5c-2.4,0-4-0.7-4.9-2c-0.8-1.3-1.2-3.6-1.2-6.8v-9.2h3.8
		v9.2c0,2.1,0.2,3.5,0.5,4.3c0.4,0.7,1.2,1.1,2.5,1.1s2.4-0.2,3.5-0.7l0.5-0.2V28.7h3.8L61.2,46.2L61.2,46.2z M69.7,46.2h-3.8V28.6
		h3.8V46.2z M69.7,25.6h-3.8v-4h3.8V25.6z M78.4,46.2h-3.8V21.3h3.8V46.2z M89.3,46.6c-2,0-3.4-0.5-4.1-1.4
		c-0.7-0.9-1.1-2.6-1.1-5.2v-8.2h-2.3v-3.3h2.3v-5.1h3.8v5.1h4.9v3.3h-4.9v7.7c0,1.4,0.1,2.4,0.3,2.8c0.2,0.5,0.8,0.7,1.6,0.7
		l2.9-0.1l0.2,3.1C91.3,46.5,90.1,46.6,89.3,46.6z M123.6,46.2h-6.1l-2.7-12.1l-2.7,12.1H106l-3.7-17.6h3.8l2.8,14.3h0.7l3.3-14h3.9
		l3.3,14h0.7l2.7-14.3h3.8L123.6,46.2z M134.5,46.2h-3.8V28.6h3.8V46.2z M134.5,25.6h-3.8v-4h3.8V25.6z M145.1,46.6
		c-2,0-3.4-0.5-4.1-1.4s-1.1-2.6-1.1-5.2v-8.2h-2.3v-3.3h2.3v-5.1h3.8v5.1h4.9v3.3h-4.9v7.7c0,1.4,0.1,2.4,0.3,2.8
		c0.2,0.5,0.8,0.7,1.6,0.7l2.9-0.1l0.2,3.1C147.1,46.5,145.9,46.6,145.1,46.6z M166.4,46.2h-3.8v-9.3c0-1.9-0.2-3.2-0.6-4
		s-1.2-1.2-2.5-1.2c-1.1,0-2.3,0.2-3.4,0.6l-0.6,0.2v13.8h-3.8v-25h3.8v8.2c1.7-0.9,3.3-1.3,4.8-1.3c2.3,0,3.9,0.7,4.8,2
		s1.3,3.5,1.3,6.6V46.2z"/>
	<path class="st0" d="M275.3,0.1h-3.2h-67.3l0,0L192,12.9v42.7v3.5v8.8h8.8h3.2h67.3l0,0l12.8-12.8V12.4V8.9V0.1H275.3z M241.1,58.6
		l-6,2.8l-5.2-8.5c-0.7,0.2-1.9,0.4-3.6,0.4c-6.1,0-10.3-1.6-12.7-4.9c-2.4-3.3-3.6-8.4-3.6-15.5s1.2-12.3,3.6-15.7
		c2.4-3.4,6.6-5.1,12.6-5.1s10.2,1.7,12.6,5.1c2.4,3.4,3.6,8.6,3.6,15.7c0,4.7-0.5,8.4-1.5,11.3c-1,2.9-2.6,5.1-4.9,6.6L241.1,58.6z
		 M259.3,52.5c-3.3,0-5.6-0.8-6.8-2.3s-1.8-4.4-1.8-8.6V28.1h-4.5v-5.4h4.5v-8.5h6.3v8.5h8v5.4h-8v12.8c0,2.4,0.2,3.9,0.5,4.7
		s1.2,1.2,2.7,1.2l4.8-0.2l0.3,5.1C262.7,52.2,260.7,52.5,259.3,52.5z"/>
	<path class="st0" d="M226.2,17.6c-3.7,0-6.2,1.2-7.5,3.6c-1.4,2.4-2,6.3-2,11.5c0,5.3,0.7,9.1,2,11.3c1.3,2.3,3.8,3.4,7.6,3.4
		s6.2-1.1,7.6-3.4c1.3-2.2,2-6,2-11.3s-0.7-9.2-2-11.6C232.4,18.8,229.9,17.6,226.2,17.6z"/>
</g>
</svg>
