<svg id="date_time" data-name="date time" xmlns="http://www.w3.org/2000/svg" viewBox="0 0 44 44"><title>date-time</title><path d="M27.81,14.93a1.18,1.18,0,0,1-1.18-1.18V9.84a1.18,1.18,0,0,1,2.35,0v3.92a1.18,1.18,0,0,1-1.18,1.18h0Z" style="fill:#fff"/><path d="M12.82,14.93a1.18,1.18,0,0,1-1.18-1.18V9.84a1.18,1.18,0,0,1,2.35,0v3.92a1.18,1.18,0,0,1-1.18,1.18h0Z" style="fill:#fff"/><path d="M32.25,18.74H8.34a0.59,0.59,0,1,1,0-1.18H32.25a0.59,0.59,0,0,1,0,1.18h0Z" style="fill:#fff"/><polygon points="13.68 21.13 11.39 21.13 11.39 23.41 13.68 23.41 13.68 21.13 13.68 21.13" style="fill:#fff"/><polygon points="17.62 21.13 15.34 21.13 15.34 23.41 17.62 23.41 17.62 21.13 17.62 21.13" style="fill:#fff"/><polygon points="21.57 21.13 19.29 21.13 19.29 23.41 21.57 23.41 21.57 21.13 21.57 21.13" style="fill:#fff"/><polygon points="25.52 21.13 23.24 21.13 23.24 23.41 25.52 23.41 25.52 21.13 25.52 21.13" style="fill:#fff"/><polygon points="13.68 24.79 11.39 24.79 11.39 27.07 13.68 27.07 13.68 24.79 13.68 24.79" style="fill:#fff"/><polygon points="17.62 24.79 15.34 24.79 15.34 27.07 17.62 27.07 17.62 24.79 17.62 24.79" style="fill:#fff"/><polygon points="21.57 24.79 19.29 24.79 19.29 27.07 21.57 27.07 21.57 24.79 21.57 24.79" style="fill:#fff"/><path d="M29.7,35.34A7.3,7.3,0,1,1,37,28a7.31,7.31,0,0,1-7.3,7.3h0Zm0-13.42A6.12,6.12,0,1,0,35.82,28a6.13,6.13,0,0,0-6.12-6.12h0Z" style="fill:#fff"/><path d="M23.69,32.18H8.18A1.18,1.18,0,0,1,7,31V11.8a1.18,1.18,0,0,1,1.18-1.18H32.32a1.18,1.18,0,0,1,1.18,1.18V21.85H31.14V13H9.35V29.83H23.69v2.35h0Z" style="fill:#fff"/><line x1="29.7" y1="28.04" x2="33.49" y2="28.04" style="fill:none;stroke:#fff;stroke-linecap:round;stroke-width:1.763880513519565px"/><line x1="29.7" y1="28.04" x2="29.7" y2="24.24" style="fill:none;stroke:#fff;stroke-linecap:round;stroke-width:1.763880513519565px"/></svg>