<svg id="Layer_1" data-name="Layer 1" xmlns="http://www.w3.org/2000/svg" viewBox="0 0 64 64"><title>detail</title><rect width="64" height="64" style="fill:#09102b"/><path d="M34.92,11.23H9.08A1.08,1.08,0,0,0,8,12.31V31.69a1.08,1.08,0,0,0,1.08,1.08H34.92A1.08,1.08,0,0,0,36,31.69V12.31A1.08,1.08,0,0,0,34.92,11.23ZM33.85,25H23.29V13.39H33.85V25Zm-4.56,5.62h-6V26h6v4.62Zm-8,0h-4V26h4v4.62Zm0-17.23V25H10.15V13.39H21.29ZM10.15,26h5.13v4.62H10.15V26Zm20.13,4.62V26h3.56v4.62H30.29Z" transform="translate(10.1 10)" style="fill:#fff"/><rect x="22.39" y="25" width="8" height="1" style="fill:#fff"/><rect x="22.39" y="30" width="8" height="1" style="fill:#fff"/><rect x="22.39" y="27" width="8" height="1" style="fill:#fff"/><rect x="22.39" y="32" width="8" height="1" style="fill:#fff"/></svg>