<?xml version="1.0" encoding="UTF-8" standalone="no"?>
<svg
   xmlns:dc="http://purl.org/dc/elements/1.1/"
   xmlns:cc="http://creativecommons.org/ns#"
   xmlns:rdf="http://www.w3.org/1999/02/22-rdf-syntax-ns#"
   xmlns:svg="http://www.w3.org/2000/svg"
   xmlns="http://www.w3.org/2000/svg"
   xmlns:sodipodi="http://sodipodi.sourceforge.net/DTD/sodipodi-0.dtd"
   xmlns:inkscape="http://www.inkscape.org/namespaces/inkscape"
   id="detail"
   viewBox="0 0 44 44"
   version="1.1"
   sodipodi:docname="detail_icon_disabled.svg"
   width="44"
   height="44"
   inkscape:version="0.92.1 r15371">
  <metadata
     id="metadata4521">
    <rdf:RDF>
      <cc:Work
         rdf:about="">
        <dc:format>image/svg+xml</dc:format>
        <dc:type
           rdf:resource="http://purl.org/dc/dcmitype/StillImage" />
        <dc:title>detail</dc:title>
      </cc:Work>
    </rdf:RDF>
  </metadata>
  <defs
     id="defs4519" />
  <sodipodi:namedview
     pagecolor="#ffffff"
     bordercolor="#666666"
     borderopacity="1"
     objecttolerance="10"
     gridtolerance="10"
     guidetolerance="10"
     inkscape:pageopacity="0"
     inkscape:pageshadow="2"
     inkscape:window-width="1920"
     inkscape:window-height="1137"
     id="namedview4517"
     showgrid="false"
     inkscape:zoom="5.3636364"
     inkscape:cx="-8.29661"
     inkscape:cy="22"
     inkscape:window-x="-8"
     inkscape:window-y="-8"
     inkscape:window-maximized="1"
     inkscape:current-layer="detail"
     inkscape:pagecheckerboard="true"
     fit-margin-top="5.08"
     fit-margin-left="0"
     fit-margin-right="0"
     fit-margin-bottom="5.08" />
  <title
     id="title4504">detail</title>
  <path
     d="M 42.31,5.08 H 1.69 A 1.69,1.69 0 0 0 0,6.77 v 30.46 a 1.69,1.69 0 0 0 1.69,1.69 H 42.31 A 1.69,1.69 0 0 0 44,37.23 V 6.77 A 1.69,1.69 0 0 0 42.31,5.08 Z m -1.7,21.63 H 24 V 8.46 h 16.61 z m -7.16,8.82 H 24 v -7.24 h 9.43 z m -12.57,0 h -6.29 v -7.24 h 6.29 z m 0,-27.08 V 26.71 H 3.38 V 8.46 Z M 3.38,28.29 h 8.07 v 7.25 H 3.38 Z M 35,35.54 v -7.25 h 5.59 v 7.25 z"
     style="fill:#848895;fill-opacity:1"
     id="path4506"
     inkscape:connector-curvature="0" />
  <rect
     x="6.7399998"
     y="11"
     width="12.57"
     height="1.5700001"
     style="fill:#848895;fill-opacity:1"
     id="rect4508" />
  <rect
     x="6.7399998"
     y="18.860001"
     width="12.57"
     height="1.5700001"
     style="fill:#848895;fill-opacity:1"
     id="rect4510" />
  <rect
     x="6.7399998"
     y="14.140001"
     width="12.57"
     height="1.5700001"
     style="fill:#848895;fill-opacity:1"
     id="rect4512" />
  <rect
     x="6.7399998"
     y="22"
     width="12.57"
     height="1.5700001"
     style="fill:#848895;fill-opacity:1"
     id="rect4514" />
</svg>
