<svg id="display" xmlns="http://www.w3.org/2000/svg" viewBox="0 0 44 44"><title>display</title><path d="M34.83,28.68H9.17A1.17,1.17,0,0,1,8,27.52V11.18A1.17,1.17,0,0,1,9.17,10H34.83A1.17,1.17,0,0,1,36,11.18V27.52a1.17,1.17,0,0,1-1.17,1.17h0Zm-24.5-2.33H33.67v-14H10.33v14h0Z" style="fill:#fff"/><path d="M26.3,34H17.7a1.17,1.17,0,1,1,0-2.33h8.6a1.17,1.17,0,1,1,0,2.33h0Z" style="fill:#fff"/><path d="M19,33.64a1.17,1.17,0,0,1-1.17-1.17V27.76a1.17,1.17,0,1,1,2.33,0v4.72A1.17,1.17,0,0,1,19,33.64h0Z" style="fill:#fff"/><path d="M25,33.64a1.17,1.17,0,0,1-1.17-1.17V27.76a1.17,1.17,0,1,1,2.33,0v4.72A1.17,1.17,0,0,1,25,33.64h0Z" style="fill:#fff"/></svg>