<?xml version="1.0" encoding="UTF-8" standalone="no"?>
<svg
   xmlns:dc="http://purl.org/dc/elements/1.1/"
   xmlns:cc="http://creativecommons.org/ns#"
   xmlns:rdf="http://www.w3.org/1999/02/22-rdf-syntax-ns#"
   xmlns:svg="http://www.w3.org/2000/svg"
   xmlns="http://www.w3.org/2000/svg"
   xmlns:sodipodi="http://sodipodi.sourceforge.net/DTD/sodipodi-0.dtd"
   xmlns:inkscape="http://www.inkscape.org/namespaces/inkscape"
   id="grid"
   viewBox="0 0 44 43.999999"
   version="1.1"
   sodipodi:docname="grid_icon.svg"
   width="44"
   height="44"
   inkscape:version="0.92.1 r15371">
  <metadata
     id="metadata3744">
    <rdf:RDF>
      <cc:Work
         rdf:about="">
        <dc:format>image/svg+xml</dc:format>
        <dc:type
           rdf:resource="http://purl.org/dc/dcmitype/StillImage" />
        <dc:title>grid_icon</dc:title>
      </cc:Work>
    </rdf:RDF>
  </metadata>
  <defs
     id="defs3742" />
  <sodipodi:namedview
     pagecolor="#ffffff"
     bordercolor="#666666"
     borderopacity="1"
     objecttolerance="10"
     gridtolerance="10"
     guidetolerance="10"
     inkscape:pageopacity="0"
     inkscape:pageshadow="2"
     inkscape:window-width="716"
     inkscape:window-height="480"
     id="namedview3740"
     showgrid="false"
     inkscape:pagecheckerboard="true"
     inkscape:zoom="5.3636364"
     inkscape:cx="22"
     inkscape:cy="22.000003"
     inkscape:window-x="163"
     inkscape:window-y="291"
     inkscape:window-maximized="0"
     inkscape:current-layer="grid"
     fit-margin-top="5.08"
     fit-margin-bottom="5.08"
     fit-margin-left="0"
     fit-margin-right="0" />
  <title
     id="title3735">grid_icon</title>
  <path
     d="M 42.31,5.08 H 1.69 A 1.69,1.69 0 0 0 0,6.77 v 30.46 a 1.69,1.69 0 0 0 1.69,1.69 H 42.31 A 1.69,1.69 0 0 0 44,37.23 V 6.77 A 1.69,1.69 0 0 0 42.31,5.08 Z M 40.62,21.26 H 29.19 V 8.46 h 11.43 z m -23.79,0 V 8.46 h 10.41 v 12.8 z m 10.41,1.3 v 13 H 16.83 v -13 z M 14.88,8.46 v 12.8 H 3.39 V 8.46 Z M 3.39,22.56 h 11.49 v 13 H 3.39 Z m 25.81,13 v -13 h 11.42 v 13 z"
     style="fill:#ffffff"
     id="path3737"
     inkscape:connector-curvature="0" />
</svg>
