<svg id="info" xmlns="http://www.w3.org/2000/svg" viewBox="0 0 44 44"><title>info</title><path d="M21.87,17.53a1.36,1.36,0,0,1-.93-0.33,1.29,1.29,0,0,1,0-1.84A1.33,1.33,0,0,1,21.87,15a1.35,1.35,0,0,1,.89.32,1.15,1.15,0,0,1,.39.94,1.19,1.19,0,0,1-.38.93,1.31,1.31,0,0,1-.9.34m1.28,2.67v7.48a1.67,1.67,0,0,1-.37,1.18,1.23,1.23,0,0,1-.94.4,1.17,1.17,0,0,1-.92-0.41,1.73,1.73,0,0,1-.36-1.17V20.28a1.66,1.66,0,0,1,.36-1.16,1.19,1.19,0,0,1,.92-0.39,1.24,1.24,0,0,1,.94.39,1.5,1.5,0,0,1,.37,1.08" style="fill:#fff"/><path d="M21.89,37a15,15,0,1,1,10.62-4.4A14.89,14.89,0,0,1,21.89,37m0-27.46a12.46,12.46,0,1,0,8.81,3.65A12.37,12.37,0,0,0,21.9,9.54" style="fill:#fff"/></svg>