<svg id="language" xmlns="http://www.w3.org/2000/svg" viewBox="0 0 44 44"><title>language</title><path d="M22,36A14,14,0,1,1,36,22,14,14,0,0,1,22,36h0Zm0-25.64A11.64,11.64,0,1,0,33.64,22,11.66,11.66,0,0,0,22,10.36h0Z" style="fill:#fff"/><path d="M22,35.41c-4.41,0-8-6-8-13.41S17.59,8.59,22,8.59s8,6,8,13.41-3.59,13.41-8,13.41h0ZM22,9.77c-3.76,0-6.83,5.49-6.83,12.23S18.24,34.23,22,34.23,28.83,28.74,28.83,22,25.76,9.77,22,9.77h0Z" style="fill:#fff"/><path d="M22,35.41a0.59,0.59,0,0,1-.59-0.59V9.18A0.59,0.59,0,0,1,22,8.59a13.41,13.41,0,0,1,0,26.82h0ZM22.59,9.78V34.22a12.23,12.23,0,0,0,0-24.44h0Z" style="fill:#fff"/><path d="M34,27.11H10a0.59,0.59,0,0,1-.55-0.38,13.26,13.26,0,0,1,0-9.45A0.59,0.59,0,0,1,10,16.89H34a0.59,0.59,0,0,1,.55.38,13.24,13.24,0,0,1,0,9.46,0.59,0.59,0,0,1-.55.38h0ZM10.43,25.93H33.57a12,12,0,0,0,0-7.86H10.43a12,12,0,0,0,0,7.86h0Z" style="fill:#fff"/></svg>