<?xml version="1.0" encoding="UTF-8" standalone="no"?>
<svg
   xmlns:dc="http://purl.org/dc/elements/1.1/"
   xmlns:cc="http://creativecommons.org/ns#"
   xmlns:rdf="http://www.w3.org/1999/02/22-rdf-syntax-ns#"
   xmlns:svg="http://www.w3.org/2000/svg"
   xmlns="http://www.w3.org/2000/svg"
   xmlns:sodipodi="http://sodipodi.sourceforge.net/DTD/sodipodi-0.dtd"
   xmlns:inkscape="http://www.inkscape.org/namespaces/inkscape"
   id="mouse"
   viewBox="0 0 38.22797 38.29335"
   version="1.1"
   sodipodi:docname="mouse_icon.svg"
   width="38.22797"
   height="38.29335"
   inkscape:version="0.92.1 r15371">
  <metadata
     id="metadata3733">
    <rdf:RDF>
      <cc:Work
         rdf:about="">
        <dc:format>image/svg+xml</dc:format>
        <dc:type
           rdf:resource="http://purl.org/dc/dcmitype/StillImage" />
        <dc:title>mouse_icon</dc:title>
      </cc:Work>
    </rdf:RDF>
  </metadata>
  <sodipodi:namedview
     pagecolor="#ffffff"
     bordercolor="#666666"
     borderopacity="1"
     objecttolerance="10"
     gridtolerance="10"
     guidetolerance="10"
     inkscape:pageopacity="0"
     inkscape:pageshadow="2"
     inkscape:window-width="716"
     inkscape:window-height="480"
     id="namedview3731"
     showgrid="false"
     inkscape:pagecheckerboard="true"
     inkscape:zoom="5.3636364"
     inkscape:cx="17.310934"
     inkscape:cy="12.770935"
     inkscape:window-x="281"
     inkscape:window-y="283"
     inkscape:window-maximized="0"
     inkscape:current-layer="mouse"
     fit-margin-top="3.9"
     fit-margin-bottom="3.9"
     fit-margin-left="0"
     fit-margin-right="0" />
  <defs
     id="defs3706">
    <clipPath
       id="clip-path">
      <polygon
         points="30.87,5.33 28.23,5.83 22.8,4.3 18.92,7.24 9.96,3.31 29,-5.98 42.56,8.54 26.94,20.62 29.12,14.45 "
         style="fill:none"
         id="polygon3703" />
    </clipPath>
  </defs>
  <title
     id="title3708">mouse_icon</title>
  <path
     d="m 0.31093391,25.622418 a 1.06,1.06 0 0 1 0,-1.5 l 4.22999999,-4.25 a 1.06,1.06 0 0 1 1.5,0 l 8.4800001,8.46 v 0 a 1.06,1.06 0 0 1 0,1.5 l -4.21,4.25 a 1.06,1.06 0 0 1 -1.5000001,0 z m 4.99999999,-3.5 -2.76,2.75 7,7 2.7300001,-2.74 -7.0000001,-7 z"
     style="fill:#ffffff"
     id="path3710"
     inkscape:connector-curvature="0" />
  <path
     d="m 19.490934,8.8724178 a 1,1 0 0 1 0,1.3600002 l -4.41,4.41 a 3.68,3.68 0 0 1 0.77,0.48 l 4.33,-4.44 a 1,1 0 0 1 1.36,1.36 l -4.31,4.42 0.62,0.62 4.12,-4.23 a 1,1 0 1 1 1.34,1.35 l -4.15,4.26 a 6,6 0 0 1 0.5,0.81 l 4,-4 a 0.86,0.86 0 0 1 1.27,0 1,1 0 0 1 0,1.36 l -5.62,5.69 -1.27,1.2 -3.23,3.26 a 2.38,2.38 0 0 1 -1.39,0.66 l -6.5700001,-6.56 a 2.59,2.59 0 0 1 0.22,-0.76 l 1.38,-5 a 1,1 0 0 1 0.26,-0.44 l 3.0500001,-3.05 a 0.91216775,0.91216775 0 1 1 1.29,1.29 l -1.24,1.22 -0.22,1.26 6.54,-6.5400002 a 1,1 0 0 1 1.36,0 m 1.5,-1.5 a 3.09,3.09 0 0 0 -4.36,0 l -2.4,2.4 a 3.07,3.07 0 0 0 -4,0.3400002 l -3.0200001,3.06 a 3.12,3.12 0 0 0 -0.81,1.36 l -1.33,4.89 a 4.74,4.74 0 0 0 -0.32,1.19 2.12,2.12 0 0 0 0.6,1.79 v 0 l 6.5600001,6.56 a 2.12,2.12 0 0 0 1.78,0.6 4.48,4.48 0 0 0 2.62,-1.27 l 3.23,-3.23 1.23,-1.23 5.41,-5.49 a 3.09,3.09 0 0 0 0,-4.36 3,3 0 0 0 -0.7,-0.52 3.08,3.08 0 0 0 -1.85,-2.51 3.08,3.08 0 0 0 -0.64,-1.3100002 2.33,2.33 0 0 0 -1.14,-0.53 3.07,3.07 0 0 0 -0.87,-1.74 z"
     style="fill:#ffffff"
     id="path3712"
     inkscape:connector-curvature="0" />
  <g
     clip-path="url(#clip-path)"
     id="g3716"
     transform="translate(-4.6890661,3.5224178)">
    <path
       d="M 18.34,16.84 A 9,9 0 0 1 16.4,14 c -1.14,-2.88 1,-6.75 2.41,-8.18 l 4.11,-4.11 a 4.79,4.79 0 0 1 6.63,0 l 4,4 a 4.8,4.8 0 0 1 0,6.66 l -4.1,4.1 c -1.44,1.41 -5.3,3.56 -8.17,2.42 a 9,9 0 0 1 -2.9,-1.95 z M 32.34,6.76 28.4,2.85 a 3.14,3.14 0 0 0 -4.28,0 L 20,7 c -1.32,1.35 -2.78,4.51 -2,6.37 a 7.43,7.43 0 0 0 3.92,3.91 c 1.84,0.73 5,-0.73 6.36,-2.06 l 4.1,-4.1 a 3.15,3.15 0 0 0 0,-4.32 z"
       style="fill:#ffffff"
       id="path3714"
       inkscape:connector-curvature="0" />
  </g>
  <path
     d="m 32.310934,28.612418 a 1.16,1.16 0 0 1 -0.51,-0.12 5.58,5.58 0 0 1 -3.22,-3.78 7.76,7.76 0 0 1 1.65,-6.1 c 0.68,-0.86 1.4,-1.67 2.1,-2.44 2.18,-2.42 4.06,-4.51 3.51,-7.1100002 a 3.24,3.24 0 0 0 -2.21,-2.48 c -1.87,-0.62 -4.3,0.1 -6.35,1.88 a 1.1660296,1.1660296 0 1 1 -1.53,-1.76 c 2.66,-2.36 5.88,-3.24 8.56,-2.34 a 5.56,5.56 0 0 1 3.76,4.16 c 0.81,3.7600002 -1.66,6.5100002 -4.05,9.1600002 -0.67,0.75 -1.37,1.53 -2,2.33 a 5.5,5.5 0 0 0 -1.21,4.14 3.31,3.31 0 0 0 2,2.21 1.17,1.17 0 0 1 -0.5,2.25 z"
     style="fill:#ffffff"
     id="path3718"
     inkscape:connector-curvature="0" />
</svg>
