<svg id="mute" xmlns="http://www.w3.org/2000/svg" viewBox="0 0 44 44"><title>mute</title><path d="M19.57,33a1.18,1.18,0,0,1-.74-0.26l-5.41-4.33H10.09a1.18,1.18,0,0,1-1.18-1.18V16.78a1.18,1.18,0,0,1,1.18-1.18h3.33l5.41-4.33a1.18,1.18,0,0,1,1.92.92V31.82A1.18,1.18,0,0,1,19.57,33h0Zm-8.3-7h2.57a1.18,1.18,0,0,1,.74.26l3.81,3.05V14.64L14.57,17.7a1.18,1.18,0,0,1-.74.26H11.27V26h0Z" style="fill:#fff"/><path d="M33.91,28.19a1.18,1.18,0,0,1-.84-0.35l-10-10a1.18,1.18,0,1,1,1.67-1.67l10,10a1.18,1.18,0,0,1-.84,2h0Z" style="fill:#fff"/><path d="M24,28.26a1.18,1.18,0,0,1-.85-2L33,16.09a1.18,1.18,0,0,1,1.69,1.65L24.8,27.91a1.18,1.18,0,0,1-.85.36h0Z" style="fill:#fff"/></svg>