<svg id="network" xmlns="http://www.w3.org/2000/svg" viewBox="0 0 44 44"><title>network</title><path d="M13,26.37A4.37,4.37,0,1,1,17.4,22,4.37,4.37,0,0,1,13,26.37h0Zm0-6.48A2.11,2.11,0,1,0,15.14,22,2.12,2.12,0,0,0,13,19.89h0Z" style="fill:#fff"/><path d="M31,16.74a4.37,4.37,0,1,1,4.37-4.37A4.37,4.37,0,0,1,31,16.74h0Zm0-6.48a2.11,2.11,0,1,0,2.11,2.11A2.12,2.12,0,0,0,31,10.26h0Z" style="fill:#fff"/><path d="M31,36a4.37,4.37,0,1,1,4.37-4.37A4.37,4.37,0,0,1,31,36h0Zm0-6.48a2.11,2.11,0,1,0,2.11,2.11A2.12,2.12,0,0,0,31,29.52h0Z" style="fill:#fff"/><path d="M27.64,31a1.13,1.13,0,0,1-.56-0.15L15.56,24.25a1.13,1.13,0,0,1,1.13-2L28.2,28.94a1.13,1.13,0,0,1-.56,2.1h0Z" style="fill:#fff"/><path d="M16.13,21.85a1.13,1.13,0,0,1-.57-2.1L27.07,13.1a1.13,1.13,0,1,1,1.13,2L16.69,21.7a1.12,1.12,0,0,1-.56.15h0Z" style="fill:#fff"/></svg>