<svg id="pause" xmlns="http://www.w3.org/2000/svg" viewBox="0 0 44 44"><title>pause</title><path d="M18.68,33H15.74a2.38,2.38,0,0,1-2.38-2.37V13.37A2.38,2.38,0,0,1,15.74,11h2.94a2.38,2.38,0,0,1,2.38,2.37V30.63A2.38,2.38,0,0,1,18.68,33h0ZM15.74,13.07a0.31,0.31,0,0,0-.3.3V30.63a0.31,0.31,0,0,0,.3.3h2.94a0.31,0.31,0,0,0,.3-0.3V13.37a0.31,0.31,0,0,0-.3-0.3H15.74Z" style="fill:#fff"/><path d="M28.26,33H25.32a2.38,2.38,0,0,1-2.38-2.37V13.37A2.38,2.38,0,0,1,25.32,11h2.94a2.38,2.38,0,0,1,2.38,2.37V30.63A2.38,2.38,0,0,1,28.26,33h0ZM25.32,13.07a0.31,0.31,0,0,0-.3.3V30.63a0.31,0.31,0,0,0,.3.3h2.94a0.31,0.31,0,0,0,.3-0.3V13.37a0.31,0.31,0,0,0-.3-0.3H25.32Z" style="fill:#fff"/></svg>