<svg id="volume" xmlns="http://www.w3.org/2000/svg" viewBox="0 0 44 44"><title>volume</title><path d="M28.63,32.79a1.18,1.18,0,0,1-.84-2,12.42,12.42,0,0,0,0-17.55,1.18,1.18,0,1,1,1.67-1.67,14.79,14.79,0,0,1,0,20.89,1.18,1.18,0,0,1-.84.35h0Z" style="fill:#fff"/><path d="M25.2,29.37a1.18,1.18,0,0,1-.84-2,7.57,7.57,0,0,0,0-10.7A1.18,1.18,0,1,1,26,15a9.93,9.93,0,0,1,0,14,1.18,1.18,0,0,1-.84.35h0Z" style="fill:#fff"/><path d="M20.89,33a1.17,1.17,0,0,1-.74-0.26l-5.41-4.33H11.4a1.18,1.18,0,0,1-1.18-1.18V16.78A1.18,1.18,0,0,1,11.4,15.6h3.33l5.42-4.33a1.18,1.18,0,0,1,1.92.92V31.82A1.18,1.18,0,0,1,20.89,33h0Zm-8.3-7h2.57a1.18,1.18,0,0,1,.74.26l3.82,3.05V14.64L15.89,17.7a1.18,1.18,0,0,1-.74.26H12.58V26h0Z" style="fill:#fff"/></svg>