<svg id="settings" xmlns="http://www.w3.org/2000/svg" viewBox="0 0 44 44"><title>settings</title><path d="M35.23,19.08H31a10.28,10.28,0,0,0-1-2.26L32.79,14a1.66,1.66,0,0,0,0-2.36l-1.18-1.17a1.67,1.67,0,0,0-2.36,0l-2.82,2.82a10,10,0,0,0-2.47-1V8.67A1.67,1.67,0,0,0,22.31,7H20.65A1.67,1.67,0,0,0,19,8.67v3.66a9.78,9.78,0,0,0-2.68,1.13L13.94,11.1a1.67,1.67,0,0,0-2.36,0L10.4,12.27a1.68,1.68,0,0,0,0,2.36l2.4,2.4a9.94,9.94,0,0,0-1.11,2.88H8.57A1.67,1.67,0,0,0,6.9,21.58v1.67a1.67,1.67,0,0,0,1.67,1.66h3.35a9.77,9.77,0,0,0,1.35,2.77L11,30a1.67,1.67,0,0,0,0,2.36l1.18,1.18a1.68,1.68,0,0,0,2.36,0L17.06,31a9.69,9.69,0,0,0,2.75.89v3.48A1.67,1.67,0,0,0,21.48,37h1.67a1.67,1.67,0,0,0,1.67-1.67V31.42a9.78,9.78,0,0,0,2.36-1.2l2.68,2.69a1.67,1.67,0,0,0,2.36,0l1.18-1.18a1.66,1.66,0,0,0,0-2.36l-2.94-2.94a9.87,9.87,0,0,0,.82-2.34h4a1.67,1.67,0,0,0,1.67-1.67V20.75A1.67,1.67,0,0,0,35.23,19.08ZM21.48,28.62A6.62,6.62,0,1,1,28.11,22,6.62,6.62,0,0,1,21.48,28.62Z" style="fill:#fff"/></svg>